<svg xmlns="http://www.w3.org/2000/svg" xmlns:xlink="http://www.w3.org/1999/xlink" width="1920" zoomAndPan="magnify" viewBox="0 0 1440 299.999988" height="400" preserveAspectRatio="xMidYMid meet" version="1.0"><path fill="#000000" d="M 1157.226562 287.441406 C 1154.085938 266.382812 1168.027344 251.226562 1160.15625 239.042969 C 1153.125 228.15625 1137.675781 223.089844 1127.417969 213.835938 C 1070.515625 162.421875 1082.28125 73.871094 1151.03125 33.007812 C 1209.3125 -1.578125 1286.601562 12.742188 1328.261719 65.875 C 1374.691406 125.074219 1346.097656 215.761719 1270.230469 240.925781 C 1232.171875 253.570312 1188.878906 250.683594 1157.226562 287.441406 Z M 1181.84375 248.839844 C 1196.625 233.597656 1213.875 235.273438 1231.125 234.101562 C 1315.238281 228.367188 1361.796875 145.425781 1318.085938 78.8125 C 1296.691406 46.195312 1263.742188 31.835938 1225.640625 29.742188 C 1172.84375 26.894531 1122.726562 61.226562 1109.957031 107.953125 C 1097.355469 154.089844 1118.625 196.460938 1170.082031 222.796875 C 1181.71875 228.699219 1179.667969 237.453125 1181.84375 248.839844 Z M 1181.84375 248.839844 " fill-opacity="1" fill-rule="nonzero"/><path fill="#000000" d="M 371.558594 98.742188 C 361.300781 119.800781 351.882812 139.519531 342.085938 159.074219 C 339.445312 164.308594 338.484375 172.136719 330.152344 171.59375 C 323.367188 171.132812 322.195312 164.433594 319.851562 159.660156 C 310.054688 139.855469 300.550781 119.882812 290.792969 99.660156 C 281.039062 104.519531 284.597656 111.636719 284.515625 117.035156 C 284.054688 145.589844 284.261719 174.1875 284.136719 202.742188 C 284.097656 207.597656 284.054688 213.460938 277.355469 213.585938 C 270.613281 213.710938 270.320312 207.890625 270.320312 202.992188 C 270.195312 162.589844 270.195312 122.1875 270.238281 81.742188 C 270.238281 75.964844 270.78125 70.351562 278.316406 69.390625 C 286.648438 68.34375 293.097656 70.019531 297.035156 78.683594 C 305.363281 97.066406 314.285156 115.238281 323.160156 133.40625 C 324.917969 137.007812 325.753906 142.324219 330.445312 142.871094 C 336.890625 143.664062 337.519531 137.21875 339.488281 133.238281 C 348.113281 115.738281 356.738281 98.238281 364.734375 80.445312 C 368.796875 71.398438 374.910156 67.714844 384.539062 69.390625 C 394.921875 71.191406 392.410156 79.480469 392.453125 85.929688 C 392.660156 123.570312 392.660156 161.167969 392.410156 198.804688 C 392.367188 204.542969 394.753906 213.167969 385.585938 213.671875 C 374.363281 214.296875 377.296875 204.542969 377.210938 198.347656 C 376.878906 172.554688 377.253906 146.765625 376.917969 121.015625 C 376.835938 114.441406 379.390625 107.199219 371.558594 98.742188 Z M 371.558594 98.742188 " fill-opacity="1" fill-rule="nonzero"/><path fill="#000000" d="M 773.542969 97.527344 C 773.542969 127.796875 773.542969 158.070312 773.542969 188.296875 C 773.542969 193.867188 773.5 199.433594 773.332031 205.003906 C 773.164062 209.441406 771.910156 213.417969 766.632812 213.835938 C 760.058594 214.382812 758.300781 209.945312 758.257812 204.542969 C 758.132812 185.03125 758.09375 165.5625 758.050781 146.050781 C 758.007812 126.542969 757.757812 107.070312 758.21875 87.5625 C 758.386719 80.695312 754.574219 71.105469 766.339844 69.304688 C 775.96875 67.800781 783.632812 69.601562 788.574219 79.898438 C 801.84375 107.492188 815.914062 134.746094 829.9375 161.960938 C 832.660156 167.238281 833.75 174.019531 844.382812 177.703125 C 844.382812 162.296875 844.382812 148.144531 844.382812 133.992188 C 844.382812 118 844.089844 101.964844 844.550781 85.96875 C 844.71875 79.773438 841.410156 69.894531 852.378906 70.144531 C 863.183594 70.394531 859.707031 80.277344 859.75 86.390625 C 860.085938 123.273438 860.085938 160.203125 859.75 197.089844 C 859.707031 203.246094 863.140625 211.953125 852.882812 214.214844 C 842.875 216.390625 837.808594 210.78125 833.664062 202.40625 C 816.078125 167.027344 798.035156 131.816406 780.199219 96.5625 C 777.9375 96.855469 775.761719 97.191406 773.542969 97.527344 Z M 773.542969 97.527344 " fill-opacity="1" fill-rule="nonzero"/><path fill="#000000" d="M 77.472656 177.914062 C 54.402344 171.550781 41.757812 180.804688 38.117188 204 C 37.070312 210.570312 33.261719 216.558594 25.179688 213.503906 C 16.890625 210.363281 22.164062 204.039062 23.671875 199.433594 C 36.359375 160.371094 49.464844 121.476562 62.148438 82.410156 C 64.746094 74.414062 67.96875 68.929688 77.726562 68.804688 C 87.855469 68.71875 90.496094 75.042969 93.007812 82.703125 C 105.527344 121.097656 118.378906 159.367188 130.605469 197.84375 C 132.152344 202.742188 139.019531 210.027344 129.726562 213.628906 C 120.976562 217.019531 116.832031 210.238281 115.617188 202.785156 C 111.972656 180.511719 99.582031 171.757812 77.472656 177.914062 Z M 79.148438 89.363281 C 67.339844 105.734375 65.582031 120.511719 61.144531 134.121094 C 52.058594 161.921875 52.394531 162.003906 82.414062 161.039062 C 85.175781 160.957031 87.984375 161 90.746094 160.789062 C 96.566406 160.371094 100.082031 157.816406 98.15625 151.453125 C 92.253906 131.902344 86.183594 112.390625 79.148438 89.363281 Z M 79.148438 89.363281 " fill-opacity="1" fill-rule="nonzero"/><path fill="#000000" d="M 900.402344 140.441406 C 900.402344 122.355469 900.90625 104.265625 900.238281 86.179688 C 899.777344 74.039062 903.292969 68.132812 916.566406 68.761719 C 933.898438 69.558594 951.359375 68.761719 968.734375 69.097656 C 974.554688 69.179688 982.632812 67.421875 983.09375 76.71875 C 983.554688 86.597656 975.179688 84.503906 969.488281 84.671875 C 956.296875 85.089844 943.066406 85.007812 929.835938 84.882812 C 912.335938 84.671875 916.984375 97.734375 916.691406 107.238281 C 916.398438 116.535156 913.886719 127.964844 929.710938 127.546875 C 940.847656 127.253906 951.984375 127.546875 963.082031 127.714844 C 968.148438 127.796875 973.171875 128.507812 973.714844 135.039062 C 974.429688 143.582031 967.9375 143.078125 962.496094 143.371094 C 956.925781 143.625 951.359375 143.496094 945.789062 143.496094 C 916.441406 143.539062 916.441406 143.539062 916.523438 172.890625 C 916.605469 198.554688 916.605469 197.84375 951.609375 198.972656 C 962.117188 199.308594 981.628906 191.605469 981.671875 205.925781 C 981.671875 222.921875 961.824219 213.921875 951.359375 214.171875 C 900.488281 215.304688 900.445312 214.675781 900.445312 163.46875 C 900.402344 155.765625 900.402344 148.105469 900.402344 140.441406 Z M 900.402344 140.441406 " fill-opacity="1" fill-rule="nonzero"/><path fill="#000000" d="M 528.652344 214.339844 C 517.808594 213.585938 516.382812 205.296875 515.714844 199.183594 C 512.867188 173.390625 494.359375 177.453125 477.070312 176.699219 C 459.023438 175.90625 443.699219 176.449219 440.726562 199.558594 C 439.847656 206.386719 437.835938 217.144531 426.992188 213.378906 C 416.484375 209.691406 424.480469 201.445312 426.199219 195.917969 C 437.753906 159.492188 449.855469 123.234375 461.996094 86.976562 C 464.757812 78.769531 465.472656 69.054688 478.324219 68.804688 C 491.054688 68.554688 492.519531 77.636719 495.324219 86.097656 C 507.71875 123.734375 520.109375 161.335938 532.292969 199.058594 C 534.21875 204.917969 539.453125 212.664062 528.652344 214.339844 Z M 481.800781 93.925781 C 479.75 93.800781 477.738281 93.675781 475.6875 93.546875 C 471.585938 105.816406 467.3125 118.042969 463.417969 130.394531 C 453.453125 161.878906 457.140625 165.773438 490.300781 161.082031 C 498.464844 159.910156 501.476562 157.355469 498.839844 149.148438 C 493.019531 130.8125 487.496094 112.347656 481.800781 93.925781 Z M 481.800781 93.925781 " fill-opacity="1" fill-rule="nonzero"/><path fill="#000000" d="M 600.957031 190.769531 C 610.628906 158.402344 620.300781 125.996094 629.972656 93.632812 C 631.566406 88.316406 633.199219 82.996094 634.832031 77.679688 C 636.714844 71.484375 640.566406 67.714844 647.183594 70.144531 C 654.089844 72.65625 650.699219 78.140625 649.402344 82.496094 C 638.890625 117.121094 628.257812 151.664062 617.664062 186.246094 C 616.03125 191.5625 614.0625 196.796875 612.765625 202.199219 C 610.671875 210.738281 606.234375 215.09375 596.6875 214.757812 C 588.0625 214.464844 584.460938 210.195312 582.203125 202.699219 C 570.226562 162.714844 558.085938 122.816406 546.070312 82.832031 C 544.519531 77.679688 541.378906 71.359375 550.046875 69.640625 C 557.039062 68.261719 559.800781 73.285156 561.519531 79.0625 C 567.839844 100.414062 574.164062 121.726562 580.527344 143.078125 C 585.257812 158.949219 590.074219 174.773438 594.84375 190.640625 C 596.898438 190.683594 598.90625 190.726562 600.957031 190.769531 Z M 600.957031 190.769531 " fill-opacity="1" fill-rule="nonzero"/><path fill="#000000" d="M 698.972656 214.464844 C 693.40625 214.464844 687.835938 214.632812 682.308594 214.421875 C 678.121094 214.257812 673.644531 213.710938 673.015625 208.226562 C 672.46875 203.453125 674.773438 199.769531 679.589844 199.351562 C 691.773438 198.347656 691.058594 189.761719 691.058594 181.222656 C 690.976562 158.277344 691.480469 135.332031 690.851562 112.390625 C 690.515625 100.539062 697.089844 84.503906 676.238281 81.824219 C 674.941406 81.65625 673.265625 77.304688 673.390625 75 C 673.601562 70.941406 677.117188 69.390625 680.761719 69.347656 C 693.277344 69.140625 705.757812 69.097656 718.273438 69.179688 C 721.917969 69.222656 725.265625 70.773438 726.019531 74.75 C 726.984375 79.691406 724.386719 83.207031 719.53125 83.332031 C 705.546875 83.710938 707.179688 93.675781 707.136719 102.632812 C 707.054688 124.195312 706.425781 145.757812 707.347656 167.28125 C 707.890625 180.050781 699.519531 198.136719 723.089844 200.816406 C 724.429688 200.984375 725.9375 205.253906 726.1875 207.726562 C 726.605469 211.953125 723.507812 214.003906 719.742188 214.128906 C 712.789062 214.382812 705.839844 214.214844 698.929688 214.214844 C 698.972656 214.296875 698.972656 214.382812 698.972656 214.464844 Z M 698.972656 214.464844 " fill-opacity="1" fill-rule="nonzero"/><path fill="#000000" d="M 163.554688 140.523438 C 163.515625 121.683594 163.386719 102.84375 163.597656 84.042969 C 163.679688 78.183594 161.714844 70.144531 171.300781 69.894531 C 180.929688 69.640625 179.464844 77.597656 179.507812 83.582031 C 179.675781 115.65625 180.21875 147.769531 179.339844 179.839844 C 178.921875 194.746094 184.488281 199.851562 198.808594 198.722656 C 209.90625 197.84375 221.125 198.597656 232.261719 198.597656 C 238.207031 198.597656 243.734375 199.265625 243.777344 207.179688 C 243.816406 214.257812 238.625 214.550781 233.644531 214.550781 C 214.132812 214.632812 194.582031 214.421875 175.070312 214.632812 C 165.566406 214.714844 163.429688 209.359375 163.515625 201.234375 C 163.679688 181.011719 163.597656 160.746094 163.554688 140.523438 Z M 163.554688 140.523438 " fill-opacity="1" fill-rule="nonzero"/><path fill="#000000" d="M 1211.195312 191.1875 C 1213.75 172.511719 1208.894531 161.5 1186.410156 162.003906 C 1171.085938 162.339844 1161.914062 151.703125 1163.296875 135.878906 C 1164.554688 121.769531 1159.695312 116.617188 1145.753906 118.125 C 1136.25 119.171875 1129.214844 114.859375 1128.253906 104.558594 C 1127.5 96.648438 1131.8125 90.996094 1139.433594 89.109375 C 1148.894531 86.722656 1156.765625 90.242188 1158.816406 99.914062 C 1161.917969 114.316406 1168.949219 118.503906 1182.597656 113.058594 C 1185.53125 111.886719 1190.34375 111.761719 1192.730469 113.4375 C 1213.960938 128.382812 1232.171875 113.9375 1251.265625 107.992188 C 1259.511719 105.398438 1265.332031 101.628906 1268.386719 92.042969 C 1272.492188 79.105469 1283.042969 72.867188 1296.355469 79.480469 C 1306.40625 84.464844 1312.644531 93.382812 1307.117188 105.3125 C 1301.128906 118.210938 1291.207031 121.476562 1277.765625 116.03125 C 1265.960938 111.257812 1221.371094 124.613281 1215.003906 134.121094 C 1202.90625 152.207031 1210.023438 168.578125 1233.636719 175.820312 C 1243.476562 178.835938 1249.421875 184.488281 1249.503906 194.996094 C 1249.589844 203.410156 1245.695312 209.691406 1237.65625 212.917969 C 1228.738281 216.476562 1221.328125 213.753906 1215.046875 207.054688 C 1210.902344 202.617188 1210.066406 197.257812 1211.195312 191.1875 Z M 1211.195312 191.1875 " fill-opacity="1" fill-rule="nonzero"/></svg>